PathFileType	4	(X/Y/Z)	./resultDataOpenSim/trcMotMarkerGrf/sub10/qtm-12-02.trc
DataRate	CameraRate	NumFrames	NumMarkers	Units	OrigDataRate	OrigDataStartFrame	OrigNumFrames
250.000000	250.000000	5	24	m	250.000000	116	461
Frame#	Time	L.Toe.Tip			R.Toe.Tip			L.Ankle.Lat			R.Ankle.Lat			L.Ankle.Med			R.Ankle.Med			L.Heel			R.Heel			L.Knee.Lat			R.Knee.Lat			L.Knee.Med			R.Knee.Med			L.Thigh.Upper			R.Thigh.Upper			L.ASIS			R.ASIS			V.Sacral			L.Acromium			R.Acromium			C7			L.Elbow			R.Elbow			L.Wrist.Lat			R.Wrist.Lat
		X1	Y1	Z1	X2	Y2	Z2	X3	Y3	Z3	X4	Y4	Z4	X5	Y5	Z5	X6	Y6	Z6	X7	Y7	Z7	X8	Y8	Z8	X9	Y9	Z9	X10	Y10	Z10	X11	Y11	Z11	X12	Y12	Z12	X13	Y13	Z13	X14	Y14	Z14	X15	Y15	Z15	X16	Y16	Z16	X17	Y17	Z17	X18	Y18	Z18	X19	Y19	Z19	X20	Y20	Z20	X21	Y21	Z21	X22	Y22	Z22	X23	Y23	Z23	X24	Y24	Z24

116	0.46	-0.30241274	0.094588829	-0.12462161	-0.82316473	0.03864441	0.020931278	-0.43510631	0.074888521	-0.15047959	-0.96222528	0.0546213	0.05437867	-0.42984515	0.1055008	-0.068994801	-0.94451765	0.08161098	-0.029254878	-0.48029514	0.026040191	-0.10169321	-1.0148909	0.031356409	0.0030952175	-0.54312329	0.44869705	-0.17704937	-0.85833906	0.44441183	0.10222651	-0.52372214	0.43387958	-0.057979836	-0.84385488	0.44575424	-0.026359971	-0.67910759	0.81821941	-0.22687499	-0.77222273	0.85370668	0.14842777	-0.63556228	0.9288909	-0.15070036	-0.67994056	0.93991709	0.090900905	-0.84871223	0.94647555	-0.071003405	-0.71085337	1.403702	-0.18718544	-0.73260929	1.3994797	0.13223731	-0.80231448	1.4306852	-0.033187821	-0.83800599	1.0876374	-0.24960666	-0.77005903	1.0470635	0.2112928	-0.73531019	0.87027291	-0.30095349	-0.5608081	0.92924145	0.28300018
117	0.464	-0.28638277	0.099170373	-0.12219888	-0.82309846	0.038602094	0.020952086	-0.41827412	0.075996709	-0.14938842	-0.96212192	0.054700199	0.054218089	-0.41428291	0.10676911	-0.067859323	-0.94412957	0.081630545	-0.029374719	-0.46265299	0.025992844	-0.10105304	-1.0148731	0.031551432	0.0029238396	-0.53587337	0.44678081	-0.1766831	-0.85526703	0.44361319	0.10203782	-0.51654801	0.43212125	-0.057337959	-0.84044777	0.44487492	-0.026597447	-0.67138447	0.81636939	-0.22665295	-0.76721385	0.85248065	0.14830756	-0.62815191	0.92707887	-0.15022623	-0.67419215	0.93835817	0.091395448	-0.84218091	0.94489731	-0.071640875	-0.7050869	1.4019549	-0.18708468	-0.72665271	1.3977989	0.13241443	-0.79688422	1.4288809	-0.033497332	-0.83327024	1.0863562	-0.24902214	-0.76141546	1.045252	0.21261931	-0.73243582	0.86844713	-0.30160019	-0.54992544	0.93058171	0.28336148
118	0.468	-0.27070368	0.10369533	-0.11994494	-0.82301745	0.038567733	0.020958225	-0.40178611	0.077350766	-0.14841719	-0.96207845	0.054826361	0.054040949	-0.39910568	0.10811793	-0.066771202	-0.94373487	0.081674885	-0.029513557	-0.44546289	0.026199331	-0.10063977	-1.0148543	0.031773823	0.002737595	-0.52853615	0.44493268	-0.17626475	-0.85213386	0.44279967	0.10181778	-0.50940911	0.4303718	-0.056606282	-0.83679873	0.44408923	-0.026803655	-0.66351852	0.81446516	-0.22643502	-0.76218824	0.85123122	0.14815141	-0.62043194	0.92523196	-0.14968504	-0.66835673	0.93674754	0.091864674	-0.83561686	0.94308629	-0.072405651	-0.69929874	1.4001855	-0.187025	-0.72065831	1.3960835	0.13257416	-0.79157382	1.4270472	-0.034245481	-0.82871597	1.0850331	-0.24870144	-0.75274048	1.0434294	0.21391355	-0.72947659	0.86662912	-0.30222349	-0.53910022	0.93187187	0.28365514
119	0.472	-0.25537203	0.10805755	-0.11786376	-0.82291266	0.038536949	0.020940086	-0.38566472	0.078915237	-0.14753054	-0.96207305	0.05501239	0.053854847	-0.3843312	0.10953002	-0.065767546	-0.94337083	0.081730388	-0.029720109	-0.42872939	0.026624601	-0.10041208	-1.0148356	0.032030613	0.0025386471	-0.52105934	0.44317991	-0.17579766	-0.84889965	0.44200028	0.10159697	-0.50234161	0.4286197	-0.055818421	-0.83285747	0.4433874	-0.026919486	-0.65554642	0.81250265	-0.22622344	-0.75713622	0.84995981	0.14796814	-0.61262988	0.92333878	-0.14911746	-0.66245129	0.93509584	0.092304832	-0.82907494	0.94092939	-0.073509703	-0.69355834	1.3984019	-0.18700582	-0.71464283	1.3943427	0.13271713	-0.78628224	1.4251851	-0.035130013	-0.82393734	1.0836578	-0.24794989	-0.74403189	1.0415962	0.21516556	-0.72647817	0.8648225	-0.3028404	-0.52833502	0.9331136	0.28388795
120	0.476	-0.24042298	0.11218905	-0.11589466	-0.82279517	0.038502421	0.020905413	-0.36995383	0.080624267	-0.14668983	-0.9620733	0.055256293	0.053665127	-0.36996474	0.11097938	-0.06484941	-0.94304436	0.081788525	-0.030022008	-0.412473	0.027232794	-0.10027396	-1.0148137	0.032333539	0.0023183238	-0.51341146	0.44152719	-0.17530111	-0.84558113	0.44122706	0.10138467	-0.49538003	0.42685572	-0.05501474	-0.82870408	0.44271553	-0.026953736	-0.64754447	0.81046556	-0.22601046	-0.7520499	0.84866712	0.14776842	-0.60502396	0.92138218	-0.14857707	-0.65649387	0.93341174	0.092727705	-0.82260314	0.9385271	-0.074945902	-0.68788509	1.3966107	-0.18702205	-0.70862521	1.3925863	0.13284207	-0.78088098	1.4233018	-0.035742421	-0.81886648	1.0822235	-0.24661682	-0.73529354	1.0397538	0.21636203	-0.72347534	0.86302557	-0.30346718	-0.51763659	0.9343076	0.28406666
